<mxfile host="Electron" agent="Mozilla/5.0 (Macintosh; Intel Mac OS X 10_15_7) AppleWebKit/537.36 (KHTML, like Gecko) draw.io/24.7.17 Chrome/128.0.6613.36 Electron/32.0.1 Safari/537.36" version="24.7.17">
  <diagram name="Page-1" id="VFC6to7hDZTqyzVQantm">
    <mxGraphModel dx="1016" dy="732" grid="1" gridSize="10" guides="1" tooltips="1" connect="1" arrows="1" fold="1" page="1" pageScale="1" pageWidth="827" pageHeight="1169" math="0" shadow="0">
      <root>
        <mxCell id="0" />
        <mxCell id="1" parent="0" />
        <mxCell id="kXFPGUBoY8XizePe8H00-56" value="&lt;span style=&quot;font-size: 22px;&quot;&gt;car&lt;/span&gt;" style="rounded=1;whiteSpace=wrap;html=1;labelBackgroundColor=none;" parent="1" vertex="1">
          <mxGeometry x="1311" y="1130" width="120" height="60" as="geometry" />
        </mxCell>
        <mxCell id="kXFPGUBoY8XizePe8H00-53" value="&lt;font style=&quot;font-size: 19px;&quot;&gt;Office&lt;/font&gt;" style="rounded=1;whiteSpace=wrap;html=1;labelBackgroundColor=none;verticalAlign=middle;" parent="1" vertex="1">
          <mxGeometry x="941" y="745" width="120" height="60" as="geometry" />
        </mxCell>
        <mxCell id="kXFPGUBoY8XizePe8H00-54" value="&lt;font style=&quot;font-size: 18px;&quot;&gt;owner&lt;/font&gt;" style="rounded=1;whiteSpace=wrap;html=1;labelBackgroundColor=none;" parent="1" vertex="1">
          <mxGeometry x="1311" y="745" width="120" height="60" as="geometry" />
        </mxCell>
        <mxCell id="kXFPGUBoY8XizePe8H00-55" value="&lt;font style=&quot;font-size: 20px;&quot;&gt;tenant&lt;/font&gt;" style="rounded=1;whiteSpace=wrap;html=1;labelBackgroundColor=none;" parent="1" vertex="1">
          <mxGeometry x="941" y="1130" width="120" height="60" as="geometry" />
        </mxCell>
        <mxCell id="kXFPGUBoY8XizePe8H00-57" style="edgeStyle=none;shape=connector;rounded=0;orthogonalLoop=1;jettySize=auto;html=1;exitX=0.5;exitY=1;exitDx=0;exitDy=0;entryX=0.5;entryY=0;entryDx=0;entryDy=0;align=center;verticalAlign=middle;fontFamily=Helvetica;fontSize=11;fontColor=default;labelBackgroundColor=none;endArrow=none;" parent="1" source="kXFPGUBoY8XizePe8H00-58" target="kXFPGUBoY8XizePe8H00-53" edge="1">
          <mxGeometry relative="1" as="geometry" />
        </mxCell>
        <mxCell id="kXFPGUBoY8XizePe8H00-58" value="Address" style="ellipse;whiteSpace=wrap;html=1;labelBackgroundColor=none;" parent="1" vertex="1">
          <mxGeometry x="941" y="630" width="80" height="40" as="geometry" />
        </mxCell>
        <mxCell id="kXFPGUBoY8XizePe8H00-59" style="edgeStyle=none;shape=connector;rounded=0;orthogonalLoop=1;jettySize=auto;html=1;exitX=1;exitY=1;exitDx=0;exitDy=0;entryX=0;entryY=0;entryDx=0;entryDy=0;align=center;verticalAlign=middle;fontFamily=Helvetica;fontSize=11;fontColor=default;labelBackgroundColor=none;endArrow=none;" parent="1" source="kXFPGUBoY8XizePe8H00-60" target="kXFPGUBoY8XizePe8H00-53" edge="1">
          <mxGeometry relative="1" as="geometry" />
        </mxCell>
        <mxCell id="kXFPGUBoY8XizePe8H00-60" value="&lt;u&gt;ID&lt;/u&gt;" style="ellipse;whiteSpace=wrap;html=1;labelBackgroundColor=none;" parent="1" vertex="1">
          <mxGeometry x="821" y="660" width="80" height="40" as="geometry" />
        </mxCell>
        <mxCell id="kXFPGUBoY8XizePe8H00-64" style="edgeStyle=none;shape=connector;rounded=0;orthogonalLoop=1;jettySize=auto;html=1;exitX=1;exitY=0.5;exitDx=0;exitDy=0;align=center;verticalAlign=middle;fontFamily=Helvetica;fontSize=11;fontColor=default;labelBackgroundColor=none;endArrow=none;" parent="1" source="kXFPGUBoY8XizePe8H00-65" target="kXFPGUBoY8XizePe8H00-55" edge="1">
          <mxGeometry relative="1" as="geometry" />
        </mxCell>
        <mxCell id="kXFPGUBoY8XizePe8H00-65" value="&lt;u&gt;National ID&lt;/u&gt;" style="ellipse;whiteSpace=wrap;html=1;labelBackgroundColor=none;" parent="1" vertex="1">
          <mxGeometry x="801" y="1140" width="80" height="40" as="geometry" />
        </mxCell>
        <mxCell id="kXFPGUBoY8XizePe8H00-66" style="edgeStyle=none;shape=connector;rounded=0;orthogonalLoop=1;jettySize=auto;html=1;exitX=1;exitY=0;exitDx=0;exitDy=0;entryX=0.25;entryY=1;entryDx=0;entryDy=0;align=center;verticalAlign=middle;fontFamily=Helvetica;fontSize=11;fontColor=default;labelBackgroundColor=none;endArrow=none;" parent="1" source="kXFPGUBoY8XizePe8H00-67" target="kXFPGUBoY8XizePe8H00-55" edge="1">
          <mxGeometry relative="1" as="geometry" />
        </mxCell>
        <mxCell id="kXFPGUBoY8XizePe8H00-67" value="Driving License" style="ellipse;whiteSpace=wrap;html=1;labelBackgroundColor=none;" parent="1" vertex="1">
          <mxGeometry x="851" y="1230" width="80" height="40" as="geometry" />
        </mxCell>
        <mxCell id="kXFPGUBoY8XizePe8H00-68" style="edgeStyle=none;shape=connector;rounded=0;orthogonalLoop=1;jettySize=auto;html=1;exitX=0.5;exitY=1;exitDx=0;exitDy=0;entryX=0.25;entryY=0;entryDx=0;entryDy=0;align=center;verticalAlign=middle;fontFamily=Helvetica;fontSize=11;fontColor=default;labelBackgroundColor=none;endArrow=none;" parent="1" source="kXFPGUBoY8XizePe8H00-69" target="kXFPGUBoY8XizePe8H00-54" edge="1">
          <mxGeometry relative="1" as="geometry" />
        </mxCell>
        <mxCell id="kXFPGUBoY8XizePe8H00-69" value="Full Name" style="ellipse;whiteSpace=wrap;html=1;labelBackgroundColor=none;" parent="1" vertex="1">
          <mxGeometry x="1281" y="630" width="80" height="40" as="geometry" />
        </mxCell>
        <mxCell id="kXFPGUBoY8XizePe8H00-70" value="&lt;u&gt;ID&lt;/u&gt;" style="ellipse;whiteSpace=wrap;html=1;labelBackgroundColor=none;" parent="1" vertex="1">
          <mxGeometry x="1411" y="660" width="80" height="40" as="geometry" />
        </mxCell>
        <mxCell id="kXFPGUBoY8XizePe8H00-71" style="edgeStyle=none;shape=connector;rounded=0;orthogonalLoop=1;jettySize=auto;html=1;exitX=0;exitY=0.5;exitDx=0;exitDy=0;entryX=1;entryY=0.5;entryDx=0;entryDy=0;align=center;verticalAlign=middle;fontFamily=Helvetica;fontSize=11;fontColor=default;labelBackgroundColor=none;endArrow=none;" parent="1" source="kXFPGUBoY8XizePe8H00-72" target="kXFPGUBoY8XizePe8H00-54" edge="1">
          <mxGeometry relative="1" as="geometry" />
        </mxCell>
        <mxCell id="kXFPGUBoY8XizePe8H00-72" value="Bank accnt num." style="ellipse;whiteSpace=wrap;html=1;labelBackgroundColor=none;" parent="1" vertex="1">
          <mxGeometry x="1471" y="755" width="80" height="40" as="geometry" />
        </mxCell>
        <mxCell id="kXFPGUBoY8XizePe8H00-73" style="edgeStyle=none;shape=connector;rounded=0;orthogonalLoop=1;jettySize=auto;html=1;exitX=1;exitY=0.5;exitDx=0;exitDy=0;entryX=0;entryY=0.5;entryDx=0;entryDy=0;align=center;verticalAlign=middle;fontFamily=Helvetica;fontSize=11;fontColor=default;labelBackgroundColor=none;endArrow=none;" parent="1" source="kXFPGUBoY8XizePe8H00-74" target="kXFPGUBoY8XizePe8H00-53" edge="1">
          <mxGeometry relative="1" as="geometry" />
        </mxCell>
        <mxCell id="kXFPGUBoY8XizePe8H00-74" value="contact num." style="ellipse;whiteSpace=wrap;html=1;labelBackgroundColor=none;" parent="1" vertex="1">
          <mxGeometry x="791" y="755" width="80" height="40" as="geometry" />
        </mxCell>
        <mxCell id="kXFPGUBoY8XizePe8H00-84" style="edgeStyle=none;shape=connector;rounded=0;orthogonalLoop=1;jettySize=auto;html=1;exitX=0;exitY=0.5;exitDx=0;exitDy=0;align=center;verticalAlign=middle;fontFamily=Helvetica;fontSize=11;fontColor=default;labelBackgroundColor=none;endArrow=none;" parent="1" source="kXFPGUBoY8XizePe8H00-85" target="kXFPGUBoY8XizePe8H00-56" edge="1">
          <mxGeometry relative="1" as="geometry" />
        </mxCell>
        <mxCell id="kXFPGUBoY8XizePe8H00-115" style="edgeStyle=none;shape=connector;rounded=0;orthogonalLoop=1;jettySize=auto;html=1;exitX=1;exitY=0.5;exitDx=0;exitDy=0;strokeColor=default;align=center;verticalAlign=middle;fontFamily=Helvetica;fontSize=11;fontColor=default;labelBackgroundColor=default;endArrow=none;endFill=0;" parent="1" source="kXFPGUBoY8XizePe8H00-85" target="kXFPGUBoY8XizePe8H00-110" edge="1">
          <mxGeometry relative="1" as="geometry" />
        </mxCell>
        <mxCell id="kXFPGUBoY8XizePe8H00-116" style="edgeStyle=none;shape=connector;rounded=0;orthogonalLoop=1;jettySize=auto;html=1;exitX=1;exitY=1;exitDx=0;exitDy=0;entryX=0;entryY=0.5;entryDx=0;entryDy=0;strokeColor=default;align=center;verticalAlign=middle;fontFamily=Helvetica;fontSize=11;fontColor=default;labelBackgroundColor=default;endArrow=none;endFill=0;" parent="1" source="kXFPGUBoY8XizePe8H00-85" target="kXFPGUBoY8XizePe8H00-111" edge="1">
          <mxGeometry relative="1" as="geometry" />
        </mxCell>
        <mxCell id="kXFPGUBoY8XizePe8H00-85" value="Model" style="ellipse;whiteSpace=wrap;html=1;labelBackgroundColor=none;" parent="1" vertex="1">
          <mxGeometry x="1491" y="1140" width="80" height="40" as="geometry" />
        </mxCell>
        <mxCell id="kXFPGUBoY8XizePe8H00-86" style="edgeStyle=none;shape=connector;rounded=0;orthogonalLoop=1;jettySize=auto;html=1;exitX=0.5;exitY=0;exitDx=0;exitDy=0;entryX=1;entryY=1;entryDx=0;entryDy=0;align=center;verticalAlign=middle;fontFamily=Helvetica;fontSize=11;fontColor=default;labelBackgroundColor=none;endArrow=none;" parent="1" source="kXFPGUBoY8XizePe8H00-87" target="kXFPGUBoY8XizePe8H00-56" edge="1">
          <mxGeometry relative="1" as="geometry" />
        </mxCell>
        <mxCell id="kXFPGUBoY8XizePe8H00-87" value="&lt;u&gt;ID&lt;/u&gt;" style="ellipse;whiteSpace=wrap;html=1;labelBackgroundColor=none;" parent="1" vertex="1">
          <mxGeometry x="1451" y="1230" width="80" height="40" as="geometry" />
        </mxCell>
        <mxCell id="kXFPGUBoY8XizePe8H00-88" style="edgeStyle=none;shape=connector;rounded=0;orthogonalLoop=1;jettySize=auto;html=1;exitX=0.5;exitY=0;exitDx=0;exitDy=0;entryX=0.25;entryY=1;entryDx=0;entryDy=0;align=center;verticalAlign=middle;fontFamily=Helvetica;fontSize=11;fontColor=default;labelBackgroundColor=none;endArrow=none;" parent="1" source="kXFPGUBoY8XizePe8H00-89" target="kXFPGUBoY8XizePe8H00-56" edge="1">
          <mxGeometry relative="1" as="geometry" />
        </mxCell>
        <mxCell id="kXFPGUBoY8XizePe8H00-89" value="Status" style="ellipse;whiteSpace=wrap;html=1;labelBackgroundColor=none;" parent="1" vertex="1">
          <mxGeometry x="1291" y="1270" width="80" height="40" as="geometry" />
        </mxCell>
        <mxCell id="kXFPGUBoY8XizePe8H00-95" style="edgeStyle=none;shape=connector;rounded=0;orthogonalLoop=1;jettySize=auto;html=1;exitX=0;exitY=1;exitDx=0;exitDy=0;entryX=0.692;entryY=0.025;entryDx=0;entryDy=0;entryPerimeter=0;align=center;verticalAlign=middle;fontFamily=Helvetica;fontSize=11;fontColor=default;labelBackgroundColor=none;endArrow=none;" parent="1" source="kXFPGUBoY8XizePe8H00-70" target="kXFPGUBoY8XizePe8H00-54" edge="1">
          <mxGeometry relative="1" as="geometry" />
        </mxCell>
        <mxCell id="kXFPGUBoY8XizePe8H00-97" style="edgeStyle=none;shape=connector;rounded=0;orthogonalLoop=1;jettySize=auto;html=1;entryX=0.75;entryY=1;entryDx=0;entryDy=0;align=center;verticalAlign=middle;fontFamily=Helvetica;fontSize=11;fontColor=default;labelBackgroundColor=none;endArrow=none;exitX=0.5;exitY=0;exitDx=0;exitDy=0;" parent="1" source="kXFPGUBoY8XizePe8H00-98" target="kXFPGUBoY8XizePe8H00-55" edge="1">
          <mxGeometry relative="1" as="geometry">
            <mxPoint x="1101" y="1220" as="targetPoint" />
            <mxPoint x="1031" y="1250" as="sourcePoint" />
          </mxGeometry>
        </mxCell>
        <mxCell id="kXFPGUBoY8XizePe8H00-98" value="Mobile num." style="ellipse;whiteSpace=wrap;html=1;labelBackgroundColor=none;" parent="1" vertex="1">
          <mxGeometry x="981" y="1260" width="80" height="40" as="geometry" />
        </mxCell>
        <mxCell id="kXFPGUBoY8XizePe8H00-109" value="Brand" style="ellipse;whiteSpace=wrap;html=1;labelBackgroundColor=none;" parent="1" vertex="1">
          <mxGeometry x="1541" y="1070" width="80" height="40" as="geometry" />
        </mxCell>
        <mxCell id="kXFPGUBoY8XizePe8H00-110" value="model name" style="ellipse;whiteSpace=wrap;html=1;labelBackgroundColor=none;" parent="1" vertex="1">
          <mxGeometry x="1611" y="1110" width="80" height="40" as="geometry" />
        </mxCell>
        <mxCell id="kXFPGUBoY8XizePe8H00-111" value="model year" style="ellipse;whiteSpace=wrap;html=1;labelBackgroundColor=none;" parent="1" vertex="1">
          <mxGeometry x="1611" y="1170" width="80" height="40" as="geometry" />
        </mxCell>
        <mxCell id="kXFPGUBoY8XizePe8H00-113" style="rounded=0;orthogonalLoop=1;jettySize=auto;html=1;exitX=0.5;exitY=0;exitDx=0;exitDy=0;entryX=0.284;entryY=0.992;entryDx=0;entryDy=0;entryPerimeter=0;endArrow=none;endFill=0;" parent="1" source="kXFPGUBoY8XizePe8H00-85" target="kXFPGUBoY8XizePe8H00-109" edge="1">
          <mxGeometry relative="1" as="geometry" />
        </mxCell>
        <mxCell id="kXFPGUBoY8XizePe8H00-117" value="rent amount" style="ellipse;whiteSpace=wrap;html=1;labelBackgroundColor=none;" parent="1" vertex="1">
          <mxGeometry x="1381" y="1260" width="80" height="40" as="geometry" />
        </mxCell>
        <mxCell id="kXFPGUBoY8XizePe8H00-118" value="License" style="ellipse;whiteSpace=wrap;html=1;labelBackgroundColor=none;" parent="1" vertex="1">
          <mxGeometry x="1451" y="1050" width="80" height="40" as="geometry" />
        </mxCell>
        <mxCell id="kXFPGUBoY8XizePe8H00-119" style="edgeStyle=none;shape=connector;rounded=0;orthogonalLoop=1;jettySize=auto;html=1;exitX=1;exitY=0;exitDx=0;exitDy=0;entryX=0.284;entryY=1.012;entryDx=0;entryDy=0;entryPerimeter=0;strokeColor=default;align=center;verticalAlign=middle;fontFamily=Helvetica;fontSize=11;fontColor=default;labelBackgroundColor=default;endArrow=none;endFill=0;" parent="1" source="kXFPGUBoY8XizePe8H00-56" target="kXFPGUBoY8XizePe8H00-118" edge="1">
          <mxGeometry relative="1" as="geometry" />
        </mxCell>
        <mxCell id="kXFPGUBoY8XizePe8H00-120" style="edgeStyle=none;shape=connector;rounded=0;orthogonalLoop=1;jettySize=auto;html=1;exitX=0.5;exitY=0;exitDx=0;exitDy=0;entryX=0.651;entryY=1.046;entryDx=0;entryDy=0;entryPerimeter=0;strokeColor=default;align=center;verticalAlign=middle;fontFamily=Helvetica;fontSize=11;fontColor=default;labelBackgroundColor=default;endArrow=none;endFill=0;" parent="1" source="kXFPGUBoY8XizePe8H00-117" target="kXFPGUBoY8XizePe8H00-56" edge="1">
          <mxGeometry relative="1" as="geometry" />
        </mxCell>
        <mxCell id="kXFPGUBoY8XizePe8H00-125" value="M" style="edgeStyle=none;shape=link;rounded=0;orthogonalLoop=1;jettySize=auto;html=1;strokeColor=default;align=center;verticalAlign=bottom;fontFamily=Helvetica;fontSize=11;fontColor=default;labelBackgroundColor=default;endArrow=none;endFill=0;strokeWidth=1;" parent="1" source="kXFPGUBoY8XizePe8H00-121" target="kXFPGUBoY8XizePe8H00-54" edge="1">
          <mxGeometry relative="1" as="geometry" />
        </mxCell>
        <mxCell id="kXFPGUBoY8XizePe8H00-126" value="1" style="edgeStyle=none;shape=connector;rounded=0;orthogonalLoop=1;jettySize=auto;html=1;strokeColor=default;align=center;verticalAlign=bottom;fontFamily=Helvetica;fontSize=11;fontColor=default;labelBackgroundColor=default;endArrow=none;endFill=0;" parent="1" source="kXFPGUBoY8XizePe8H00-121" target="kXFPGUBoY8XizePe8H00-53" edge="1">
          <mxGeometry relative="1" as="geometry" />
        </mxCell>
        <mxCell id="kXFPGUBoY8XizePe8H00-121" value="Provides" style="rhombus;whiteSpace=wrap;html=1;fontFamily=Helvetica;fontSize=11;fontColor=default;labelBackgroundColor=default;" parent="1" vertex="1">
          <mxGeometry x="1151" y="735" width="80" height="80" as="geometry" />
        </mxCell>
        <mxCell id="kXFPGUBoY8XizePe8H00-128" value="1" style="edgeStyle=none;shape=link;rounded=0;orthogonalLoop=1;jettySize=auto;html=1;strokeColor=default;align=left;verticalAlign=bottom;fontFamily=Helvetica;fontSize=11;fontColor=default;labelBackgroundColor=default;endArrow=none;endFill=0;" parent="1" source="kXFPGUBoY8XizePe8H00-127" target="kXFPGUBoY8XizePe8H00-54" edge="1">
          <mxGeometry relative="1" as="geometry" />
        </mxCell>
        <mxCell id="kXFPGUBoY8XizePe8H00-129" value="M" style="edgeStyle=none;shape=link;rounded=0;orthogonalLoop=1;jettySize=auto;html=1;exitX=0.5;exitY=1;exitDx=0;exitDy=0;entryX=0.5;entryY=0;entryDx=0;entryDy=0;strokeColor=default;align=left;verticalAlign=bottom;fontFamily=Helvetica;fontSize=11;fontColor=default;labelBackgroundColor=default;endArrow=none;endFill=0;" parent="1" source="kXFPGUBoY8XizePe8H00-127" target="kXFPGUBoY8XizePe8H00-56" edge="1">
          <mxGeometry relative="1" as="geometry" />
        </mxCell>
        <mxCell id="kXFPGUBoY8XizePe8H00-127" value="Owns" style="rhombus;whiteSpace=wrap;html=1;fontFamily=Helvetica;fontSize=11;fontColor=default;labelBackgroundColor=default;" parent="1" vertex="1">
          <mxGeometry x="1331" y="910" width="80" height="80" as="geometry" />
        </mxCell>
        <mxCell id="kXFPGUBoY8XizePe8H00-142" value="M" style="edgeStyle=none;shape=link;rounded=0;orthogonalLoop=1;jettySize=auto;html=1;strokeColor=default;align=center;verticalAlign=bottom;fontFamily=Helvetica;fontSize=11;fontColor=default;labelBackgroundColor=default;endArrow=none;endFill=0;" parent="1" source="kXFPGUBoY8XizePe8H00-132" target="kXFPGUBoY8XizePe8H00-55" edge="1">
          <mxGeometry relative="1" as="geometry" />
        </mxCell>
        <mxCell id="kXFPGUBoY8XizePe8H00-143" value="N" style="edgeStyle=none;shape=connector;rounded=0;orthogonalLoop=1;jettySize=auto;html=1;strokeColor=default;align=center;verticalAlign=bottom;fontFamily=Helvetica;fontSize=11;fontColor=default;labelBackgroundColor=default;endArrow=none;endFill=0;" parent="1" source="kXFPGUBoY8XizePe8H00-132" edge="1">
          <mxGeometry relative="1" as="geometry">
            <mxPoint x="1316.0000000000002" y="1160" as="targetPoint" />
          </mxGeometry>
        </mxCell>
        <mxCell id="kXFPGUBoY8XizePe8H00-132" value="Orders" style="rhombus;whiteSpace=wrap;html=1;fontFamily=Helvetica;fontSize=11;fontColor=default;labelBackgroundColor=default;" parent="1" vertex="1">
          <mxGeometry x="1151" y="1120" width="80" height="80" as="geometry" />
        </mxCell>
        <mxCell id="kXFPGUBoY8XizePe8H00-136" value="" style="edgeStyle=none;shape=connector;rounded=0;orthogonalLoop=1;jettySize=auto;html=1;strokeColor=default;align=center;verticalAlign=bottom;fontFamily=Helvetica;fontSize=11;fontColor=default;labelBackgroundColor=default;endArrow=none;endFill=0;" parent="1" source="kXFPGUBoY8XizePe8H00-135" target="kXFPGUBoY8XizePe8H00-132" edge="1">
          <mxGeometry relative="1" as="geometry" />
        </mxCell>
        <mxCell id="kXFPGUBoY8XizePe8H00-135" value="Start date" style="ellipse;whiteSpace=wrap;html=1;labelBackgroundColor=none;" parent="1" vertex="1">
          <mxGeometry x="1236" y="1050" width="80" height="40" as="geometry" />
        </mxCell>
        <mxCell id="kXFPGUBoY8XizePe8H00-138" value="" style="edgeStyle=none;shape=connector;rounded=0;orthogonalLoop=1;jettySize=auto;html=1;strokeColor=default;align=center;verticalAlign=bottom;fontFamily=Helvetica;fontSize=11;fontColor=default;labelBackgroundColor=default;endArrow=none;endFill=0;" parent="1" source="kXFPGUBoY8XizePe8H00-137" target="kXFPGUBoY8XizePe8H00-132" edge="1">
          <mxGeometry relative="1" as="geometry" />
        </mxCell>
        <mxCell id="kXFPGUBoY8XizePe8H00-137" value="due payment" style="ellipse;whiteSpace=wrap;html=1;labelBackgroundColor=none;" parent="1" vertex="1">
          <mxGeometry x="1151" y="1020" width="80" height="40" as="geometry" />
        </mxCell>
        <mxCell id="kXFPGUBoY8XizePe8H00-140" value="" style="edgeStyle=none;shape=connector;rounded=0;orthogonalLoop=1;jettySize=auto;html=1;strokeColor=default;align=center;verticalAlign=bottom;fontFamily=Helvetica;fontSize=11;fontColor=default;labelBackgroundColor=default;endArrow=none;endFill=0;" parent="1" source="kXFPGUBoY8XizePe8H00-139" target="kXFPGUBoY8XizePe8H00-132" edge="1">
          <mxGeometry relative="1" as="geometry" />
        </mxCell>
        <mxCell id="kXFPGUBoY8XizePe8H00-139" value="Duration" style="ellipse;whiteSpace=wrap;html=1;labelBackgroundColor=none;" parent="1" vertex="1">
          <mxGeometry x="1061" y="1050" width="80" height="40" as="geometry" />
        </mxCell>
        <mxCell id="o2Akz32_SlZxIn9dowI7-1" value="&lt;div style=&quot;font-size: 16px;&quot;&gt;The company has many offices to serve a big sector; each office has&lt;/div&gt;&lt;div style=&quot;font-size: 16px;&quot;&gt;an ID, address and a contact no.&lt;/div&gt;&lt;div style=&quot;font-size: 16px;&quot;&gt;• The owner who is willing to provide his car/s for rent to the office&lt;/div&gt;&lt;div style=&quot;font-size: 16px;&quot;&gt;needs to register his full name, national ID as unique identifier and&lt;/div&gt;&lt;div style=&quot;font-size: 16px;&quot;&gt;the bank account number to which the company will transfer the&lt;/div&gt;&lt;div style=&quot;font-size: 16px;&quot;&gt;money to.&lt;/div&gt;&lt;div style=&quot;font-size: 16px;&quot;&gt;• The owner must apply for car renting in only one office, but an office&lt;/div&gt;&lt;div style=&quot;font-size: 16px;&quot;&gt;can have many owners.&lt;/div&gt;&lt;div style=&quot;font-size: 16px;&quot;&gt;• Data about car is ID, model (brand, model name, model year), copy&lt;/div&gt;&lt;div style=&quot;font-size: 16px;&quot;&gt;of a valid license, rent amount and car status (Ex: the car status is&lt;/div&gt;&lt;div style=&quot;font-size: 16px;&quot;&gt;booked, in maintenance or available)&lt;/div&gt;&lt;div style=&quot;font-size: 16px;&quot;&gt;• Owner can provide the office with one or more cars to rent. In&lt;/div&gt;&lt;div style=&quot;font-size: 16px;&quot;&gt;addition, it is not allowed to save a car information that is not related&lt;/div&gt;&lt;div style=&quot;font-size: 16px;&quot;&gt;to specified owner.&lt;/div&gt;&lt;div style=&quot;font-size: 16px;&quot;&gt;• In regard to the tenant (the person who pays rent for car usage); the&lt;/div&gt;&lt;div style=&quot;font-size: 16px;&quot;&gt;system has to save information about his National ID as unique&lt;/div&gt;&lt;div style=&quot;font-size: 16px;&quot;&gt;identifier, copy of a valid driving license to secure the car and a&lt;/div&gt;&lt;div style=&quot;font-size: 16px;&quot;&gt;mobile number as a contact.&lt;/div&gt;&lt;div style=&quot;font-size: 16px;&quot;&gt;• A tenant should rent one or more cars and a car can be rented by&lt;/div&gt;&lt;div style=&quot;font-size: 16px;&quot;&gt;many tenants.&lt;/div&gt;&lt;div style=&quot;font-size: 16px;&quot;&gt;• When a tenant orders a car, some information about this transaction&lt;/div&gt;&lt;div style=&quot;font-size: 16px;&quot;&gt;must be recorded such as the start date for renting the car, the&lt;/div&gt;&lt;div style=&quot;font-size: 16px;&quot;&gt;duration and payment method.&lt;/div&gt;" style="text;html=1;align=center;verticalAlign=middle;whiteSpace=wrap;rounded=0;fontSize=16;" parent="1" vertex="1">
          <mxGeometry x="961" y="1260" width="560" height="630" as="geometry" />
        </mxCell>
        <mxCell id="H4w96Py-hWL4R7s6iWxe-1" value="office" style="shape=table;startSize=30;container=1;collapsible=1;childLayout=tableLayout;fixedRows=1;rowLines=0;fontStyle=1;align=center;resizeLast=1;html=1;" parent="1" vertex="1">
          <mxGeometry x="260" y="670" width="480" height="60" as="geometry" />
        </mxCell>
        <mxCell id="H4w96Py-hWL4R7s6iWxe-2" value="" style="shape=tableRow;horizontal=0;startSize=0;swimlaneHead=0;swimlaneBody=0;fillColor=none;collapsible=0;dropTarget=0;points=[[0,0.5],[1,0.5]];portConstraint=eastwest;top=0;left=0;right=0;bottom=1;swimlaneLine=1;fontStyle=0" parent="H4w96Py-hWL4R7s6iWxe-1" vertex="1">
          <mxGeometry y="30" width="480" height="30" as="geometry" />
        </mxCell>
        <mxCell id="H4w96Py-hWL4R7s6iWxe-4" value="ID" style="shape=partialRectangle;connectable=0;fillColor=none;top=0;left=0;bottom=0;right=0;align=left;spacingLeft=6;fontStyle=5;overflow=hidden;whiteSpace=wrap;html=1;" parent="H4w96Py-hWL4R7s6iWxe-2" vertex="1">
          <mxGeometry width="160" height="30" as="geometry">
            <mxRectangle width="160" height="30" as="alternateBounds" />
          </mxGeometry>
        </mxCell>
        <mxCell id="H4w96Py-hWL4R7s6iWxe-20" value="address" style="shape=partialRectangle;connectable=0;fillColor=none;top=0;left=0;bottom=0;right=0;align=left;spacingLeft=6;fontStyle=1;overflow=hidden;whiteSpace=wrap;html=1;" parent="H4w96Py-hWL4R7s6iWxe-2" vertex="1">
          <mxGeometry x="160" width="160" height="30" as="geometry">
            <mxRectangle width="160" height="30" as="alternateBounds" />
          </mxGeometry>
        </mxCell>
        <mxCell id="H4w96Py-hWL4R7s6iWxe-21" value="contact nun." style="shape=partialRectangle;connectable=0;fillColor=none;top=0;left=0;bottom=0;right=0;align=left;spacingLeft=6;fontStyle=1;overflow=hidden;whiteSpace=wrap;html=1;" parent="H4w96Py-hWL4R7s6iWxe-2" vertex="1">
          <mxGeometry x="320" width="160" height="30" as="geometry">
            <mxRectangle width="160" height="30" as="alternateBounds" />
          </mxGeometry>
        </mxCell>
        <mxCell id="H4w96Py-hWL4R7s6iWxe-23" value="Owner" style="shape=table;startSize=30;container=1;collapsible=1;childLayout=tableLayout;fixedRows=1;rowLines=0;fontStyle=1;align=center;resizeLast=1;html=1;" parent="1" vertex="1">
          <mxGeometry x="130" y="770" width="640" height="60" as="geometry" />
        </mxCell>
        <mxCell id="H4w96Py-hWL4R7s6iWxe-24" value="" style="shape=tableRow;horizontal=0;startSize=0;swimlaneHead=0;swimlaneBody=0;fillColor=none;collapsible=0;dropTarget=0;points=[[0,0.5],[1,0.5]];portConstraint=eastwest;top=0;left=0;right=0;bottom=1;swimlaneLine=1;fontStyle=0" parent="H4w96Py-hWL4R7s6iWxe-23" vertex="1">
          <mxGeometry y="30" width="640" height="30" as="geometry" />
        </mxCell>
        <mxCell id="H4w96Py-hWL4R7s6iWxe-25" value="ID" style="shape=partialRectangle;connectable=0;fillColor=none;top=0;left=0;bottom=0;right=0;align=left;spacingLeft=6;fontStyle=5;overflow=hidden;whiteSpace=wrap;html=1;" parent="H4w96Py-hWL4R7s6iWxe-24" vertex="1">
          <mxGeometry width="160" height="30" as="geometry">
            <mxRectangle width="160" height="30" as="alternateBounds" />
          </mxGeometry>
        </mxCell>
        <mxCell id="H4w96Py-hWL4R7s6iWxe-26" value="Full Name" style="shape=partialRectangle;connectable=0;fillColor=none;top=0;left=0;bottom=0;right=0;align=left;spacingLeft=6;fontStyle=1;overflow=hidden;whiteSpace=wrap;html=1;" parent="H4w96Py-hWL4R7s6iWxe-24" vertex="1">
          <mxGeometry x="160" width="160" height="30" as="geometry">
            <mxRectangle width="160" height="30" as="alternateBounds" />
          </mxGeometry>
        </mxCell>
        <mxCell id="H4w96Py-hWL4R7s6iWxe-27" value="Bank account num." style="shape=partialRectangle;connectable=0;fillColor=none;top=0;left=0;bottom=0;right=0;align=left;spacingLeft=6;fontStyle=1;overflow=hidden;whiteSpace=wrap;html=1;" parent="H4w96Py-hWL4R7s6iWxe-24" vertex="1">
          <mxGeometry x="320" width="160" height="30" as="geometry">
            <mxRectangle width="160" height="30" as="alternateBounds" />
          </mxGeometry>
        </mxCell>
        <mxCell id="gKsmnlaA8UZMIkzMeasD-14" value="OfficeID" style="shape=partialRectangle;connectable=0;fillColor=none;top=0;left=0;bottom=0;right=0;align=left;spacingLeft=6;fontStyle=1;overflow=hidden;whiteSpace=wrap;html=1;" vertex="1" parent="H4w96Py-hWL4R7s6iWxe-24">
          <mxGeometry x="480" width="160" height="30" as="geometry">
            <mxRectangle width="160" height="30" as="alternateBounds" />
          </mxGeometry>
        </mxCell>
        <mxCell id="H4w96Py-hWL4R7s6iWxe-28" value="Tenant" style="shape=table;startSize=30;container=1;collapsible=1;childLayout=tableLayout;fixedRows=1;rowLines=0;fontStyle=1;align=center;resizeLast=1;html=1;" parent="1" vertex="1">
          <mxGeometry x="260" y="890" width="480" height="60" as="geometry" />
        </mxCell>
        <mxCell id="H4w96Py-hWL4R7s6iWxe-29" value="" style="shape=tableRow;horizontal=0;startSize=0;swimlaneHead=0;swimlaneBody=0;fillColor=none;collapsible=0;dropTarget=0;points=[[0,0.5],[1,0.5]];portConstraint=eastwest;top=0;left=0;right=0;bottom=1;swimlaneLine=1;fontStyle=0" parent="H4w96Py-hWL4R7s6iWxe-28" vertex="1">
          <mxGeometry y="30" width="480" height="30" as="geometry" />
        </mxCell>
        <mxCell id="H4w96Py-hWL4R7s6iWxe-30" value="Nattional ID" style="shape=partialRectangle;connectable=0;fillColor=none;top=0;left=0;bottom=0;right=0;align=left;spacingLeft=6;fontStyle=5;overflow=hidden;whiteSpace=wrap;html=1;" parent="H4w96Py-hWL4R7s6iWxe-29" vertex="1">
          <mxGeometry width="160" height="30" as="geometry">
            <mxRectangle width="160" height="30" as="alternateBounds" />
          </mxGeometry>
        </mxCell>
        <mxCell id="H4w96Py-hWL4R7s6iWxe-31" value="Driving License" style="shape=partialRectangle;connectable=0;fillColor=none;top=0;left=0;bottom=0;right=0;align=left;spacingLeft=6;fontStyle=1;overflow=hidden;whiteSpace=wrap;html=1;" parent="H4w96Py-hWL4R7s6iWxe-29" vertex="1">
          <mxGeometry x="160" width="160" height="30" as="geometry">
            <mxRectangle width="160" height="30" as="alternateBounds" />
          </mxGeometry>
        </mxCell>
        <mxCell id="H4w96Py-hWL4R7s6iWxe-32" value="Mobile num." style="shape=partialRectangle;connectable=0;fillColor=none;top=0;left=0;bottom=0;right=0;align=left;spacingLeft=6;fontStyle=1;overflow=hidden;whiteSpace=wrap;html=1;" parent="H4w96Py-hWL4R7s6iWxe-29" vertex="1">
          <mxGeometry x="320" width="160" height="30" as="geometry">
            <mxRectangle width="160" height="30" as="alternateBounds" />
          </mxGeometry>
        </mxCell>
        <mxCell id="H4w96Py-hWL4R7s6iWxe-33" value="Car" style="shape=table;startSize=30;container=1;collapsible=1;childLayout=tableLayout;fixedRows=1;rowLines=0;fontStyle=1;align=center;resizeLast=1;html=1;" parent="1" vertex="1">
          <mxGeometry x="140" y="1010" width="670.0000000000005" height="60" as="geometry" />
        </mxCell>
        <mxCell id="H4w96Py-hWL4R7s6iWxe-34" value="" style="shape=tableRow;horizontal=0;startSize=0;swimlaneHead=0;swimlaneBody=0;fillColor=none;collapsible=0;dropTarget=0;points=[[0,0.5],[1,0.5]];portConstraint=eastwest;top=0;left=0;right=0;bottom=1;swimlaneLine=1;fontStyle=0" parent="H4w96Py-hWL4R7s6iWxe-33" vertex="1">
          <mxGeometry y="30" width="670.0000000000005" height="30" as="geometry" />
        </mxCell>
        <mxCell id="H4w96Py-hWL4R7s6iWxe-35" value="ID" style="shape=partialRectangle;connectable=0;fillColor=none;top=0;left=0;bottom=0;right=0;align=center;spacingLeft=6;fontStyle=5;overflow=hidden;whiteSpace=wrap;html=1;" parent="H4w96Py-hWL4R7s6iWxe-34" vertex="1">
          <mxGeometry width="80" height="30" as="geometry">
            <mxRectangle width="80" height="30" as="alternateBounds" />
          </mxGeometry>
        </mxCell>
        <mxCell id="H4w96Py-hWL4R7s6iWxe-36" value="License&lt;span style=&quot;white-space: pre;&quot;&gt;&#x9;&lt;/span&gt;" style="shape=partialRectangle;connectable=0;fillColor=none;top=0;left=0;bottom=0;right=0;align=center;spacingLeft=6;fontStyle=1;overflow=hidden;whiteSpace=wrap;html=1;" parent="H4w96Py-hWL4R7s6iWxe-34" vertex="1">
          <mxGeometry x="80" width="70" height="30" as="geometry">
            <mxRectangle width="70" height="30" as="alternateBounds" />
          </mxGeometry>
        </mxCell>
        <mxCell id="H4w96Py-hWL4R7s6iWxe-37" value="Brand" style="shape=partialRectangle;connectable=0;fillColor=none;top=0;left=0;bottom=0;right=0;align=center;spacingLeft=6;fontStyle=1;overflow=hidden;whiteSpace=wrap;html=1;" parent="H4w96Py-hWL4R7s6iWxe-34" vertex="1">
          <mxGeometry x="150" width="80" height="30" as="geometry">
            <mxRectangle width="80" height="30" as="alternateBounds" />
          </mxGeometry>
        </mxCell>
        <mxCell id="H4w96Py-hWL4R7s6iWxe-38" value="Model Name" style="shape=partialRectangle;connectable=0;fillColor=none;top=0;left=0;bottom=0;right=0;align=center;spacingLeft=6;fontStyle=1;overflow=hidden;whiteSpace=wrap;html=1;" parent="H4w96Py-hWL4R7s6iWxe-34" vertex="1">
          <mxGeometry x="230" width="110" height="30" as="geometry">
            <mxRectangle width="110" height="30" as="alternateBounds" />
          </mxGeometry>
        </mxCell>
        <mxCell id="H4w96Py-hWL4R7s6iWxe-39" value="Model Year" style="shape=partialRectangle;connectable=0;fillColor=none;top=0;left=0;bottom=0;right=0;align=center;spacingLeft=6;fontStyle=1;overflow=hidden;whiteSpace=wrap;html=1;" parent="H4w96Py-hWL4R7s6iWxe-34" vertex="1">
          <mxGeometry x="340" width="100" height="30" as="geometry">
            <mxRectangle width="100" height="30" as="alternateBounds" />
          </mxGeometry>
        </mxCell>
        <mxCell id="H4w96Py-hWL4R7s6iWxe-40" value="rent amount" style="shape=partialRectangle;connectable=0;fillColor=none;top=0;left=0;bottom=0;right=0;align=center;spacingLeft=6;fontStyle=1;overflow=hidden;whiteSpace=wrap;html=1;" parent="H4w96Py-hWL4R7s6iWxe-34" vertex="1">
          <mxGeometry x="440" width="80" height="30" as="geometry">
            <mxRectangle width="80" height="30" as="alternateBounds" />
          </mxGeometry>
        </mxCell>
        <mxCell id="H4w96Py-hWL4R7s6iWxe-41" value="Status" style="shape=partialRectangle;connectable=0;fillColor=none;top=0;left=0;bottom=0;right=0;align=center;spacingLeft=6;fontStyle=1;overflow=hidden;whiteSpace=wrap;html=1;" parent="H4w96Py-hWL4R7s6iWxe-34" vertex="1">
          <mxGeometry x="520" width="80" height="30" as="geometry">
            <mxRectangle width="80" height="30" as="alternateBounds" />
          </mxGeometry>
        </mxCell>
        <mxCell id="H4w96Py-hWL4R7s6iWxe-42" value="OwnerID" style="shape=partialRectangle;connectable=0;fillColor=none;top=0;left=0;bottom=0;right=0;align=center;spacingLeft=6;fontStyle=1;overflow=hidden;whiteSpace=wrap;html=1;" parent="H4w96Py-hWL4R7s6iWxe-34" vertex="1">
          <mxGeometry x="600" width="70.00000000000045" height="30" as="geometry">
            <mxRectangle width="70.00000000000045" height="30" as="alternateBounds" />
          </mxGeometry>
        </mxCell>
        <mxCell id="gKsmnlaA8UZMIkzMeasD-1" style="edgeStyle=orthogonalEdgeStyle;rounded=0;orthogonalLoop=1;jettySize=auto;html=1;exitX=0.93;exitY=1.033;exitDx=0;exitDy=0;exitPerimeter=0;" edge="1" parent="1" source="H4w96Py-hWL4R7s6iWxe-34">
          <mxGeometry relative="1" as="geometry">
            <mxPoint x="770" y="1100" as="sourcePoint" />
            <mxPoint x="210" y="840" as="targetPoint" />
            <Array as="points">
              <mxPoint x="763" y="1100" />
              <mxPoint x="830" y="1100" />
              <mxPoint x="830" y="870" />
              <mxPoint x="210" y="870" />
            </Array>
          </mxGeometry>
        </mxCell>
        <mxCell id="gKsmnlaA8UZMIkzMeasD-2" value="Order" style="shape=table;startSize=30;container=1;collapsible=1;childLayout=tableLayout;fixedRows=1;rowLines=0;fontStyle=1;align=center;resizeLast=1;html=1;" vertex="1" parent="1">
          <mxGeometry x="240" y="1150" width="520" height="60" as="geometry" />
        </mxCell>
        <mxCell id="gKsmnlaA8UZMIkzMeasD-3" value="" style="shape=tableRow;horizontal=0;startSize=0;swimlaneHead=0;swimlaneBody=0;fillColor=none;collapsible=0;dropTarget=0;points=[[0,0.5],[1,0.5]];portConstraint=eastwest;top=0;left=0;right=0;bottom=1;swimlaneLine=1;fontStyle=0" vertex="1" parent="gKsmnlaA8UZMIkzMeasD-2">
          <mxGeometry y="30" width="520" height="30" as="geometry" />
        </mxCell>
        <mxCell id="gKsmnlaA8UZMIkzMeasD-4" value="ID" style="shape=partialRectangle;connectable=0;fillColor=none;top=0;left=0;bottom=0;right=0;align=center;spacingLeft=6;fontStyle=5;overflow=hidden;whiteSpace=wrap;html=1;" vertex="1" parent="gKsmnlaA8UZMIkzMeasD-3">
          <mxGeometry width="80" height="30" as="geometry">
            <mxRectangle width="80" height="30" as="alternateBounds" />
          </mxGeometry>
        </mxCell>
        <mxCell id="gKsmnlaA8UZMIkzMeasD-5" value="Duration" style="shape=partialRectangle;connectable=0;fillColor=none;top=0;left=0;bottom=0;right=0;align=center;spacingLeft=6;fontStyle=1;overflow=hidden;whiteSpace=wrap;html=1;" vertex="1" parent="gKsmnlaA8UZMIkzMeasD-3">
          <mxGeometry x="80" width="70" height="30" as="geometry">
            <mxRectangle width="70" height="30" as="alternateBounds" />
          </mxGeometry>
        </mxCell>
        <mxCell id="gKsmnlaA8UZMIkzMeasD-6" value="Start date" style="shape=partialRectangle;connectable=0;fillColor=none;top=0;left=0;bottom=0;right=0;align=center;spacingLeft=6;fontStyle=1;overflow=hidden;whiteSpace=wrap;html=1;" vertex="1" parent="gKsmnlaA8UZMIkzMeasD-3">
          <mxGeometry x="150" width="80" height="30" as="geometry">
            <mxRectangle width="80" height="30" as="alternateBounds" />
          </mxGeometry>
        </mxCell>
        <mxCell id="gKsmnlaA8UZMIkzMeasD-7" value="due payment" style="shape=partialRectangle;connectable=0;fillColor=none;top=0;left=0;bottom=0;right=0;align=center;spacingLeft=6;fontStyle=1;overflow=hidden;whiteSpace=wrap;html=1;" vertex="1" parent="gKsmnlaA8UZMIkzMeasD-3">
          <mxGeometry x="230" width="110" height="30" as="geometry">
            <mxRectangle width="110" height="30" as="alternateBounds" />
          </mxGeometry>
        </mxCell>
        <mxCell id="gKsmnlaA8UZMIkzMeasD-8" value="TenantID" style="shape=partialRectangle;connectable=0;fillColor=none;top=0;left=0;bottom=0;right=0;align=center;spacingLeft=6;fontStyle=1;overflow=hidden;whiteSpace=wrap;html=1;" vertex="1" parent="gKsmnlaA8UZMIkzMeasD-3">
          <mxGeometry x="340" width="100" height="30" as="geometry">
            <mxRectangle width="100" height="30" as="alternateBounds" />
          </mxGeometry>
        </mxCell>
        <mxCell id="gKsmnlaA8UZMIkzMeasD-9" value="CarID" style="shape=partialRectangle;connectable=0;fillColor=none;top=0;left=0;bottom=0;right=0;align=center;spacingLeft=6;fontStyle=1;overflow=hidden;whiteSpace=wrap;html=1;" vertex="1" parent="gKsmnlaA8UZMIkzMeasD-3">
          <mxGeometry x="440" width="80" height="30" as="geometry">
            <mxRectangle width="80" height="30" as="alternateBounds" />
          </mxGeometry>
        </mxCell>
        <mxCell id="gKsmnlaA8UZMIkzMeasD-12" style="edgeStyle=orthogonalEdgeStyle;rounded=0;orthogonalLoop=1;jettySize=auto;html=1;entryX=0.061;entryY=1.1;entryDx=0;entryDy=0;entryPerimeter=0;" edge="1" parent="1" target="H4w96Py-hWL4R7s6iWxe-34">
          <mxGeometry relative="1" as="geometry">
            <mxPoint x="720" y="1220" as="sourcePoint" />
            <Array as="points">
              <mxPoint x="720" y="1240" />
              <mxPoint x="780" y="1240" />
              <mxPoint x="780" y="1110" />
              <mxPoint x="181" y="1110" />
            </Array>
          </mxGeometry>
        </mxCell>
        <mxCell id="gKsmnlaA8UZMIkzMeasD-13" style="edgeStyle=orthogonalEdgeStyle;rounded=0;orthogonalLoop=1;jettySize=auto;html=1;exitX=0.742;exitY=1.1;exitDx=0;exitDy=0;entryX=0.183;entryY=1.133;entryDx=0;entryDy=0;entryPerimeter=0;exitPerimeter=0;" edge="1" parent="1" source="gKsmnlaA8UZMIkzMeasD-3" target="H4w96Py-hWL4R7s6iWxe-29">
          <mxGeometry relative="1" as="geometry">
            <Array as="points">
              <mxPoint x="626" y="1230" />
              <mxPoint x="110" y="1230" />
              <mxPoint x="110" y="980" />
              <mxPoint x="348" y="980" />
            </Array>
          </mxGeometry>
        </mxCell>
        <mxCell id="gKsmnlaA8UZMIkzMeasD-15" style="edgeStyle=orthogonalEdgeStyle;rounded=0;orthogonalLoop=1;jettySize=auto;html=1;exitX=0.908;exitY=0.9;exitDx=0;exitDy=0;entryX=0.146;entryY=1;entryDx=0;entryDy=0;entryPerimeter=0;exitPerimeter=0;" edge="1" parent="1" source="H4w96Py-hWL4R7s6iWxe-24" target="H4w96Py-hWL4R7s6iWxe-2">
          <mxGeometry relative="1" as="geometry">
            <Array as="points">
              <mxPoint x="711" y="850" />
              <mxPoint x="790" y="850" />
              <mxPoint x="790" y="750" />
              <mxPoint x="330" y="750" />
            </Array>
          </mxGeometry>
        </mxCell>
      </root>
    </mxGraphModel>
  </diagram>
</mxfile>
